<svg width="73" height="61" viewBox="0 0 73 61" fill="none" xmlns="http://www.w3.org/2000/svg">
<g clip-path="url(#clip0_1_3145)">
<path fill-rule="evenodd" clip-rule="evenodd" d="M36.2353 0C50.2577 0 61.7455 11.4879 61.7455 25.5102C61.7455 39.5326 50.2577 51.0204 36.2353 51.0204C22.1756 51.0204 10.6877 39.5326 10.6877 25.5102C10.6877 11.4879 22.1756 0 36.2353 0ZM12.4966 24.5871C15.9541 24.8539 19.1022 23.3599 22.8319 21.9353C25.6759 21.0495 28.173 21.5137 30.8622 22.5862C33.973 24.4697 36.9717 24.7739 40.1197 22.5862C43.1184 21.0122 46.3039 21.2416 49.4573 22.5862C52.7601 24.1976 56.2177 24.8913 59.9474 24.6992C59.5579 11.9841 49.0304 1.69143 36.2353 1.69143C23.4455 1.69143 12.9554 11.9467 12.4966 24.5871ZM12.5713 28.5463C15.9541 28.813 19.1022 27.319 22.8266 25.8944C25.6705 25.0087 28.1677 25.4729 30.8569 26.5454C33.9676 28.4289 36.9663 28.733 40.1144 26.5454C43.1131 24.9713 46.2985 25.2007 49.452 26.5454C52.7548 28.1567 56.2124 28.8504 59.8247 28.6957C59.862 28.0447 59.9794 27.3884 59.9421 26.6201C56.2177 26.8121 52.7601 26.0811 49.452 24.5071C46.3039 23.1251 43.1131 22.9331 40.1144 24.5071C36.9663 26.6948 33.9676 26.3906 30.8569 24.5071C28.1677 23.4293 25.6705 22.9704 22.8266 23.8561C19.1022 25.2754 15.9488 26.7748 12.4912 26.6201C12.4592 27.3137 12.6086 27.9273 12.5713 28.5463ZM13.5317 32.5374C16.5677 32.5374 19.4864 31.0754 22.8266 29.8482C25.6705 28.9624 28.1677 29.4267 30.8569 30.4991C33.9676 32.3827 36.9663 32.6868 40.1144 30.4991C43.1131 28.9251 46.2985 29.1545 49.452 30.4991C52.4507 31.9611 55.7161 32.6868 58.9389 32.5747C59.0563 31.8811 59.2858 31.2675 59.4405 30.5365C55.9456 30.6539 52.6001 29.9602 49.452 28.4609C46.3039 27.0789 43.1131 26.8868 40.1144 28.4609C36.9663 30.6485 33.9676 30.3444 30.8569 28.4609C28.1677 27.3831 25.6705 26.9242 22.8266 27.8099C19.3317 29.1545 16.2956 30.4991 12.9928 30.4618C13.1102 31.1554 13.377 31.8117 13.5317 32.5374ZM15.1484 36.3418C17.5709 35.995 20.068 34.8424 22.8319 33.8073C25.6759 32.9216 28.173 33.3858 30.8622 34.4583C33.973 36.3418 36.9717 36.6459 40.1197 34.4583C43.1184 32.8842 46.3039 33.0763 49.4573 34.4583C51.9544 35.6855 54.569 36.3791 57.2582 36.4965C57.4876 35.8456 57.8718 35.1893 58.2186 34.501C55.2199 34.501 52.2639 33.77 49.4573 32.4254C46.3092 31.0434 43.1184 30.8513 40.1197 32.4254C36.9717 34.5757 33.973 34.3089 30.8622 32.4254C28.173 31.3475 25.6759 30.8887 22.8319 31.7744C19.6838 32.9269 16.9946 34.2715 14.188 34.4263C14.5295 35.0345 14.9137 35.7282 15.1484 36.3418ZM18.5633 41.2614C23.0187 46.1382 29.3575 49.329 36.2353 49.329C42.8837 49.329 48.8757 46.4104 53.3684 41.8376C52.0985 41.4908 50.7966 40.9519 49.452 40.3383C46.3039 38.9563 43.1131 38.7642 40.1144 40.3383C36.9663 42.4886 33.9676 42.2218 30.8569 40.3383C28.1677 39.2604 25.6705 38.8016 22.8266 39.6873C21.3326 40.2209 19.9079 40.8398 18.5633 41.2614ZM17.2987 39.7247C19.0649 39.3031 20.8737 38.4974 22.8319 37.7664C25.6759 36.8807 28.173 37.3449 30.8622 38.4174C33.973 40.3009 36.9717 40.5677 40.1197 38.4174C43.1184 36.8433 46.3039 37.0354 49.4573 38.4174C51.2608 39.2604 53.0696 39.9167 54.8731 40.1835C55.2199 39.5326 55.6788 38.9136 56.1804 38.3374C53.9127 38.1453 51.6877 37.4143 49.4573 36.3791C46.3092 34.9972 43.1184 34.8051 40.1197 36.3791C36.9717 38.5294 33.973 38.2627 30.8622 36.3791C28.173 35.3013 25.6759 34.8424 22.8319 35.7282C20.4095 36.6513 18.1845 37.649 16.1089 38.0706C16.5677 38.5721 16.9519 39.1484 17.2987 39.7247Z" fill="#106835"/>
<path fill-rule="evenodd" clip-rule="evenodd" d="M29.939 10.2551C30.5152 12.827 32.6282 14.7105 35.28 14.7105C38.3161 14.7105 40.7332 12.288 40.7332 9.25734C40.7332 6.60547 38.887 4.41782 36.3152 3.87891C39.6554 3.87891 42.4993 6.68551 42.4993 10.1804C42.4993 13.638 39.6554 16.4819 36.1604 16.4819C32.7402 16.4819 29.8963 13.638 29.939 10.2551ZM30.3231 8.76112L32.6282 8.49433L33.5886 10.6073L34.0475 8.33959L36.3899 8.03012L34.3943 6.8776L34.8959 4.6099L33.1671 6.1466L31.1288 4.99408L32.0893 7.14439L30.3231 8.76112Z" fill="#106835"/>
<path d="M68.0094 31.5028L68.1641 30.505M67.9293 29.6566L68.004 28.3493M67.1237 27.4316L67.0063 26.1243M65.1654 25.7402L65.0107 24.5503M64.1303 27.1221L64.0556 26.1243M62.9778 29.5819L62.711 28.5468M62.823 31.4281L62.4762 30.4676M70.5065 42.8733L71.3496 42.0302M71.3869 41.2245L72.1179 40.072M71.7711 38.8768L72.31 37.7616M70.928 36.4223L71.3869 35.2698M69.3166 37.148L69.8556 36.1502M67.1237 38.7274L67.7373 37.3828M66.0512 40.2214L66.2806 39.0689M60.438 56.3567L61.3984 56.1273M62.1294 55.551L63.3566 55.1295M63.8208 53.9023L64.9733 53.3634M64.6639 51.4425L65.6617 50.8662M62.9351 51.021L63.8582 50.6741M60.2085 50.9409L61.0516 50.2473M58.4797 51.5172L59.2107 50.8235" stroke="#106835" stroke-width="0.19607" stroke-miterlimit="2.6131"/>
<path d="M10.111 51.9813C9.49742 51.5224 8.84112 51.4424 8.03543 51.6344C8.15281 52.3281 8.76642 52.9417 9.72686 53.4006M25.1739 56.7034C21.2948 57.7012 16.722 55.4762 11.0341 53.1711M16.4926 53.2458C15.9163 52.3228 15.1853 51.8265 14.0702 51.8265C14.1875 52.787 14.6464 53.9768 15.4148 54.8999C14.1875 54.9373 13.035 55.6309 12.3414 56.3192C13.1097 56.9328 13.9528 57.1249 14.9559 56.8955M14.2249 52.4401C13.8034 51.7465 13.1898 51.2876 12.3414 51.1329C12.0319 52.0933 12.4961 53.2085 13.1844 53.9768C12.0319 54.1689 11.0341 54.7078 10.5699 55.5509C11.2636 56.0898 12.0319 56.1645 12.8376 55.8977M12.1493 51.6344C11.5357 50.9408 10.8794 50.8661 9.91895 51.1329C9.91895 51.8265 10.3778 52.5949 11.0715 53.1711M10.842 55.092C9.9563 55.1667 9.34268 54.7452 8.72907 53.9768C9.34268 53.4006 10.111 53.1711 11.0715 53.2832M7.65659 28.0824C7.84867 27.3514 7.65659 26.7378 7.19771 26.0068C6.5841 26.4284 6.23728 27.2767 6.23728 28.3119M10.9594 46.256C6.6588 43.5294 7.08033 37.2279 6.96294 29.3897M9.0012 34.4587C9.61481 33.5356 9.76954 32.7299 9.38537 31.6947C8.54232 32.1963 7.61924 33.0767 7.08033 34.0745C6.54142 32.9967 5.50628 32.191 4.54585 31.8441C4.23637 32.7672 4.47114 33.5729 5.04741 34.4587M8.88381 32.0416C9.34268 31.3906 9.53477 30.697 9.34268 29.7739C8.3449 29.8913 7.49651 30.7717 7.03764 31.7321C6.42403 30.7343 5.53829 30.0033 4.57786 29.8859C4.38577 30.7717 4.57786 31.46 5.11677 32.1536M8.84646 29.8486C9.19328 28.9628 9.0012 28.3492 8.38758 27.5435C7.73662 27.853 7.19771 28.5413 6.96828 29.4271M5.07942 29.9286C4.6579 29.1976 4.84998 28.4293 5.34621 27.6609C6.07721 27.8904 6.61612 28.5467 6.8829 29.4644M3.0465 38.3004C2.77971 37.5321 2.35285 37.0732 1.5845 36.7264C1.23768 37.3773 1.39242 38.2631 1.89398 39.1861M8.07811 47.8301L3.0465 39.7624M7.38446 43.1453C7.45916 42.0301 7.15503 41.2244 6.26929 40.5307C5.76773 41.3738 5.46359 42.6437 5.50094 43.7962C4.50316 43.1453 3.15855 42.9105 2.16076 43.1026C2.42755 44.0257 3.00381 44.6766 3.9269 45.1408M6.03985 41.1444C6.0772 40.3013 5.92247 39.5703 5.27151 38.914C4.50316 39.4903 4.19369 40.6801 4.27372 41.758C3.23859 41.1817 2.12341 40.9896 1.23768 41.3738C1.50447 42.2595 2.04338 42.7558 2.84908 43.0279M4.88733 39.2235C4.76995 38.3004 4.27372 37.8415 3.38799 37.4574C2.96646 38.0336 2.88643 38.9193 3.07851 39.7997M1.70189 41.1817C0.970892 40.7228 0.741455 39.9918 0.741455 39.0314C1.54715 38.914 2.35285 39.2235 3.00915 39.8745M24.1761 53.7101C19.9128 52.6322 15.1106 47.7554 11.7651 48.3316M28.6314 54.4784C17.5277 50.2898 13.6113 41.2244 6.6588 49.2547C14.3423 48.1769 20.8359 55.823 27.7884 55.092M62.284 51.9813C62.8976 51.5224 63.5539 51.4424 64.3596 51.6344C64.2422 52.3281 63.6286 52.9417 62.6682 53.4006M47.2265 56.7034C51.1056 57.7012 55.6783 55.4762 61.3662 53.1711M55.9078 53.2458C56.484 52.3228 57.215 51.8265 58.3302 51.8265C58.2128 52.787 57.7539 53.9768 56.9856 54.8999C58.2128 54.9373 59.3653 55.6309 60.059 56.3192C59.2906 56.9328 58.4476 57.1249 57.4445 56.8955M58.1755 52.4401C58.6343 51.7465 59.2106 51.2876 60.059 51.1329C60.3685 52.0933 59.9043 53.2085 59.2159 53.9768C60.3685 54.1689 61.3662 54.7078 61.8305 55.5509C61.1368 56.0898 60.3685 56.1645 59.5628 55.8977M60.2457 51.6344C60.8594 50.9408 61.5156 50.8661 62.4761 51.1329C62.4761 51.8265 62.0172 52.5949 61.3236 53.1711M61.553 55.092C62.4387 55.1667 63.0523 54.7452 63.666 53.9768C63.0523 53.4006 62.284 53.1711 61.3236 53.2832M64.7438 28.0824C64.5517 27.3514 64.7438 26.7378 65.2026 26.0068C65.8163 26.4284 66.1631 27.2767 66.1631 28.3119M61.4409 46.256C65.7416 43.5294 65.32 37.2279 65.4374 29.3897M63.3992 34.4587C62.7856 33.5356 62.6308 32.7299 63.015 31.6947C63.858 32.1963 64.7811 33.0767 65.32 34.0745C65.8589 32.9967 66.8941 32.191 67.8545 31.8441C68.164 32.7672 67.9292 33.5729 67.353 34.4587M63.5112 32.0416C63.0523 31.3906 62.8603 30.697 63.0523 29.7739C64.0501 29.8913 64.8985 30.7717 65.3574 31.7321C65.971 30.7343 66.8567 30.0033 67.8172 29.8859C68.0093 30.7717 67.8172 31.46 67.2783 32.1536M63.5539 29.8486C63.2071 28.9628 63.3992 28.3492 64.0128 27.5435C64.6637 27.853 65.2026 28.5413 65.4321 29.4271M67.3156 29.9286C67.7371 29.1976 67.545 28.4293 67.0488 27.6609C66.3178 27.8904 65.7789 28.5467 65.5121 29.4644M69.3539 38.3004C69.6206 37.5321 70.0849 37.0732 70.8159 36.7264C71.1627 37.3773 71.0079 38.2631 70.5064 39.1861M64.3223 47.8301L69.3539 39.7624M65.0106 43.1453C64.9359 42.0301 65.24 41.2244 66.1257 40.5307C66.6273 41.3738 66.9314 42.6437 66.8941 43.7962C67.8919 43.1453 69.2365 42.9105 70.2343 43.1026C69.9675 44.0257 69.3912 44.6766 68.4681 45.1408M66.3552 41.1444C66.3178 40.3013 66.4726 39.5703 67.1235 38.914C67.8919 39.4903 68.2013 40.6801 68.1213 41.758C69.1564 41.1817 70.2716 40.9896 71.1573 41.3738C70.8906 42.2595 70.3517 42.7558 69.5833 43.0279M67.5077 39.2235C67.6251 38.3004 68.1213 37.8415 69.007 37.4574C69.4286 38.0336 69.5086 38.9193 69.3165 39.7997M70.6985 41.1817C71.4295 40.7228 71.6589 39.9918 71.6589 39.0314C70.8532 38.914 70.0849 39.2235 69.3912 39.8745M48.2243 53.7101C52.4876 52.6322 57.2897 47.7554 60.6352 48.3316M43.7689 54.4784C54.8726 50.2898 58.7891 41.2244 65.7416 49.2547C58.0581 48.1769 51.5645 55.823 44.612 55.092M39.7725 55.0547C38.3905 55.3214 37.2753 55.7056 36.2402 56.0898C35.3545 55.6309 33.8978 55.2841 32.6279 55.0547M40.9623 55.7056C39.7725 55.9351 38.5399 56.2819 37.5048 56.6661C39.0415 57.3597 40.3487 58.2774 41.5386 59.3926L40.6155 60.1236C39.3083 58.8537 37.9636 57.8933 36.2349 57.205C34.5808 57.9733 33.0067 58.9337 31.7795 60.1236L30.8564 59.3926C31.9716 58.3148 33.1615 57.3971 34.6235 56.6661C33.7377 56.2819 32.5852 55.9351 31.4327 55.7056M18.6802 56.2072C18.9897 54.7879 18.3334 53.518 16.5673 52.4401C16.3005 53.3632 16.722 54.5904 17.4904 55.7803C16.1084 56.0898 14.9559 56.7034 14.5717 57.5465C16.5673 57.936 17.9119 57.4344 18.6802 56.2072ZM7.11768 37.6868C8.57967 37.34 9.42272 36.2675 9.73219 34.2292C8.84646 34.3039 7.88602 35.227 7.04298 36.3795C6.23728 35.227 5.19681 34.384 4.35376 34.3413C4.69525 36.3422 5.69303 37.3827 7.11768 37.6868ZM7.34711 46.8323C8.42494 45.8345 8.61702 44.4525 7.88602 42.5317C7.11768 43.1079 6.7335 44.3351 6.61612 45.7598C5.34621 45.1835 4.04428 44.9541 3.23325 45.3756C4.5832 46.907 5.96515 47.3285 7.34711 46.8323ZM21.5616 57.4718C26.5558 58.4695 29.6292 50.2898 36.2349 54.0142C31.2833 53.5927 26.7106 62.354 21.5616 57.4718ZM53.7148 56.2072C53.4053 54.7879 54.0616 53.518 55.8277 52.4401C56.1372 53.3632 55.673 54.5904 54.9047 55.7803C56.2866 56.0898 57.4391 56.7034 57.8233 57.5465C55.8277 57.936 54.4831 57.4344 53.7148 56.2072ZM65.2827 37.6868C63.8207 37.34 62.9776 36.2675 62.6682 34.2292C63.5539 34.3039 64.5143 35.227 65.3574 36.3795C66.1631 35.227 67.2036 34.384 68.0466 34.3413C67.6998 36.3422 66.702 37.3827 65.2827 37.6868ZM65.0479 46.8323C63.9701 45.8345 63.778 44.4525 64.509 42.5317C65.2774 43.1079 65.6615 44.3351 65.7789 45.7598C67.0488 45.1835 68.3507 44.9541 69.1618 45.3756C67.8172 46.907 66.4352 47.3285 65.0479 46.8323ZM50.8335 57.4718C45.8392 58.4695 42.7658 50.2898 36.1602 54.0142C41.1171 53.5927 45.6898 62.354 50.8335 57.4718Z" stroke="#106835" stroke-width="0.509783" stroke-miterlimit="2.6131"/>
<path d="M4.39116 31.5028L4.23642 30.505M4.46586 29.6566L4.39116 28.3493M5.27155 27.4316L5.38894 26.1243M7.22978 25.7402L7.38451 24.5503M8.27025 27.1221L8.34495 26.1243M9.42277 29.5819L9.68956 28.5468M9.57751 31.4281L9.92433 30.4676M1.89402 42.8733L1.05098 42.0302M1.00829 41.2245L0.277292 40.072M0.624116 38.8768L0.0852051 37.7616M1.46716 36.4223L1.00829 35.2698M3.0839 37.148L2.54499 36.1502M5.27155 38.7274L4.65794 37.3828M6.34938 40.2214L6.11994 39.0689M11.9573 56.3567L10.9968 56.1273M10.2658 55.551L9.03859 55.1295M8.57438 53.9023L7.42186 53.3634M7.73134 51.4425L6.73355 50.8662M9.46012 51.021L8.53703 50.6741M12.1867 50.9409L11.3436 50.2473M13.9155 51.5172L13.1845 50.8235" stroke="#106835" stroke-width="0.19607" stroke-miterlimit="2.6131"/>
<path fill-rule="evenodd" clip-rule="evenodd" d="M45.4979 41.262L46.5757 40.8031C46.7305 40.6484 46.8852 40.5737 46.9599 40.5363C47.1146 40.4616 47.2694 40.3816 47.3441 40.2695H47.3814C47.3814 40.3869 47.3441 40.4243 47.3067 40.4616C47.3067 40.499 47.1893 40.579 47.1893 40.6164C47.0346 40.8458 46.7678 41.0379 46.3836 41.23C46.2289 41.3047 46.0368 41.3847 45.8447 41.4968C45.5779 41.6141 45.3432 41.6888 45.2311 41.7262C45.039 41.8809 44.8096 41.993 44.6922 42.1104C44.6922 42.1477 44.6175 42.2278 44.6175 42.3025C44.5802 42.3772 44.5802 42.4198 44.5802 42.4572C44.5802 42.6866 44.5802 42.8787 44.5802 43.0708C44.5802 43.3002 44.6175 43.4923 44.6175 43.6844C44.6175 43.8018 44.6922 43.8765 44.7349 43.9512C44.8096 44.0686 44.8523 44.1433 44.9643 44.1806H45.039C45.1137 43.9139 45.2311 43.7218 45.2685 43.567C45.4232 43.3376 45.5353 43.1455 45.69 43.0281C45.69 43.0281 45.7647 43.0281 45.8074 43.0281C45.8447 42.9908 45.9248 42.9908 45.9248 42.9908C46.0422 42.9908 46.1542 43.0281 46.2342 43.0281C46.389 43.1028 46.5437 43.1455 46.6931 43.1829L47.0399 43.3002C47.0773 43.3376 47.0773 43.3376 47.0399 43.4176C46.9226 43.4923 46.6558 43.7644 46.389 44.1113C46.1595 44.4207 45.8874 44.6128 45.6953 44.7249C45.4659 44.917 45.1564 45.0344 44.8096 45.0344C44.7349 44.9597 44.6175 44.917 44.5802 44.8049C44.5055 44.7302 44.4628 44.6128 44.4628 44.4954C44.3881 44.6875 44.308 44.8423 44.2333 44.9543C44.1586 45.0717 44.0786 45.2211 43.9665 45.3385C43.8918 45.6053 43.8492 45.7974 43.8118 45.9148C43.7745 46.0695 43.6944 46.2616 43.5824 46.4163C43.465 46.4537 43.3529 46.491 43.2355 46.5337C43.0435 46.6084 42.8887 46.6511 42.6593 46.6884C42.6593 46.6884 42.6219 46.6884 42.5419 46.6884C42.4672 46.7258 42.3872 46.7258 42.3498 46.7258C42.3125 46.6884 42.3125 46.6511 42.3498 46.6084C42.4672 46.5337 42.5792 46.4537 42.6966 46.379C42.8514 46.3043 43.0061 46.2616 43.0808 46.1495C43.2355 46.1122 43.3102 46.0321 43.4276 45.9948C43.5824 45.9201 43.6571 45.8027 43.6944 45.728C43.6944 45.6907 43.6944 45.6533 43.6944 45.6533C43.6944 45.5786 43.6944 45.4612 43.6571 45.4239C43.6197 45.4239 43.5824 45.3865 43.5824 45.3865C43.465 45.3865 43.4276 45.3865 43.3529 45.3865C43.3156 45.3865 43.2355 45.3865 43.1608 45.3492C43.1235 45.3492 43.0861 45.2745 43.0861 45.2318C43.0488 45.1944 43.0488 45.1571 43.0488 45.0397C43.0488 44.965 43.0861 44.8476 43.1235 44.6929C43.1608 44.5381 43.2409 44.4261 43.2409 44.3087C43.2782 44.2713 43.3156 44.234 43.3156 44.1913C43.3156 44.154 43.3529 44.154 43.3903 44.1166C43.4276 44.1166 43.465 44.1166 43.5077 44.1166C43.6251 44.1166 43.6624 44.1166 43.7371 44.1913C43.7745 44.266 43.8545 44.346 43.8545 44.4207C43.8918 44.5381 43.9719 44.6128 43.9719 44.7302C44.0092 44.7302 44.0092 44.7302 44.0092 44.7302C44.0466 44.7302 44.0466 44.6929 44.0839 44.6929C44.1586 44.6182 44.2387 44.5381 44.2387 44.4634C44.3134 44.346 44.3561 44.1966 44.3561 44.0793C44.3561 44.0419 44.3561 43.9619 44.3561 43.8872C44.3561 43.8498 44.3561 43.8125 44.3561 43.7698C44.3561 43.6951 44.3561 43.5403 44.3561 43.423C44.3561 43.2309 44.3561 43.1135 44.3561 43.0388C44.3561 43.0014 44.3561 42.8467 44.3561 42.772C44.3561 42.7346 44.3561 42.6546 44.3561 42.6173C44.4308 42.3078 44.5108 42.0784 44.6228 41.9236C44.6975 41.7689 44.8149 41.6568 44.9323 41.5768L45.4979 41.262ZM46.4957 43.567L46.3036 43.4923L45.8821 43.3749C45.8447 43.3749 45.7647 43.3749 45.7647 43.3749C45.69 43.3749 45.6473 43.4123 45.61 43.4123C45.5726 43.487 45.5353 43.567 45.4552 43.6791C45.4179 43.7164 45.3378 43.8338 45.3005 43.8712C45.3005 43.9459 45.2631 44.0633 45.2258 44.1006C45.2258 44.138 45.2258 44.1753 45.2258 44.1753C45.4179 44.1753 45.5726 44.1753 45.7647 44.1006C45.9194 44.0633 46.0742 43.9459 46.2663 43.8338C46.3036 43.7965 46.341 43.7164 46.3836 43.7164C46.4157 43.6791 46.4957 43.6044 46.4957 43.567ZM36.854 44.6395L37.2382 44.1006H37.3502C37.4676 44.1753 37.5423 44.2553 37.5796 44.2927C37.697 44.4101 37.8091 44.4474 37.8891 44.4848H37.9265C38.0012 44.33 38.1559 44.218 38.2733 44.1006H38.3106C38.428 44.138 38.5027 44.218 38.5774 44.2927C38.6148 44.33 38.7322 44.4101 38.8869 44.4848C38.8869 44.5221 38.8869 44.5595 38.8869 44.5595C38.8496 44.5968 38.8122 44.6342 38.6948 44.7142C38.6575 44.8316 38.6201 44.9063 38.5774 44.9437C38.5027 45.0184 38.46 45.061 38.4227 45.1357C38.348 45.1357 38.3053 45.061 38.2306 45.061C38.2306 45.061 38.1933 45.0237 38.1132 44.9863C38.0759 44.949 37.9958 44.9116 37.9211 44.8689C37.8838 44.8316 37.8464 44.7142 37.8038 44.6769C37.7664 44.7942 37.729 44.8316 37.6117 44.9063C37.537 44.981 37.4569 45.061 37.4569 45.1357H37.4196C37.3822 45.1357 37.3449 45.1357 37.2648 45.061C37.2275 45.0237 37.1901 45.0237 37.1475 45.0237C37.0728 44.949 37.0301 44.9063 36.9927 44.8689C36.8753 44.8316 36.838 44.7142 36.8006 44.6769L36.854 44.6395ZM42.2324 43.487C42.1577 43.5243 42.0403 43.6791 42.003 43.7164C42.003 43.7911 41.9283 43.8712 41.9283 44.0259C41.8536 44.0633 41.8109 44.1433 41.7362 44.1806C41.6615 44.218 41.6188 44.2553 41.5815 44.3354C41.3147 44.6448 41.1599 44.8743 41.0799 44.949C40.8505 45.1784 40.6584 45.2958 40.4289 45.3332C40.4289 45.3332 40.3916 45.3332 40.3542 45.3332C40.2795 45.3332 40.1995 45.3332 40.1995 45.3332C40.1995 45.3332 40.1995 45.2958 40.2742 45.2158C40.3116 45.1784 40.3116 45.061 40.2742 45.0237C40.2742 45.0237 40.1995 45.0237 40.1568 45.061C40.1195 45.1784 40.0394 45.2531 40.0021 45.3278C39.9274 45.4025 39.8473 45.4452 39.7726 45.5199C39.4632 45.6746 39.159 45.7867 38.6948 45.8667C38.428 45.9414 37.9638 45.9414 37.5423 45.9414C37.1581 45.9414 36.7739 45.9414 36.5072 45.9041C36.2404 45.9041 35.9683 45.7867 35.7388 45.712C35.6641 45.712 35.6214 45.6373 35.6214 45.5946C35.5841 45.5573 35.5841 45.4399 35.5841 45.4025C35.5841 45.3652 35.5841 45.3278 35.5841 45.2851C35.5841 45.2478 35.5841 45.2104 35.5841 45.1678C35.5841 45.1304 35.5467 45.0504 35.5094 45.0504C35.5094 45.0504 35.4347 45.0504 35.392 45.1251C35.392 45.2798 35.3546 45.4345 35.3173 45.5466C35.3173 45.6213 35.3173 45.7387 35.3173 45.8934C35.3173 45.9681 35.3173 46.0482 35.3173 46.1229C35.3173 46.1602 35.3546 46.2776 35.3546 46.3149C35.392 46.4323 35.5094 46.507 35.6641 46.5817C35.6641 46.6191 35.7815 46.6191 36.0109 46.6991C36.2777 46.6991 36.5498 46.7365 36.8166 46.7365C37.1261 46.7365 37.3929 46.7365 37.7024 46.6991C37.9318 46.6618 38.2413 46.6244 38.5081 46.5817C38.8922 46.4643 39.2017 46.3896 39.4312 46.2723C39.7406 46.0802 39.9701 45.8507 40.1248 45.5413C40.1622 45.5786 40.1995 45.616 40.2795 45.616C40.3542 45.616 40.3969 45.616 40.4343 45.6533C40.4716 45.6533 40.509 45.6533 40.509 45.6533C40.5837 45.6533 40.7384 45.616 40.7758 45.5786C40.8505 45.5413 40.9305 45.5039 41.0426 45.3865C41.1173 45.2691 41.2346 45.1571 41.3093 45.0023C41.4641 44.8476 41.5761 44.6929 41.7309 44.6555C41.7682 44.6182 41.8056 44.6182 41.8482 44.6182C41.923 44.6182 41.9656 44.6555 42.115 44.6929C42.1897 44.6929 42.2324 44.7676 42.2698 44.7676C42.3445 44.7676 42.4619 44.6929 42.5366 44.6502C42.5739 44.5755 42.6113 44.4954 42.6913 44.4581C42.6913 44.4207 42.7286 44.3834 42.766 44.3034C42.766 44.2287 42.766 44.186 42.766 44.1486C42.6913 44.0312 42.6113 43.9192 42.4992 43.8018C42.3818 43.6844 42.3071 43.535 42.2698 43.455H42.2324V43.487ZM30.5525 47.4835L31.0914 47.0246H31.1287C31.1661 47.0993 31.2461 47.1793 31.3208 47.254C31.3955 47.3714 31.5129 47.4088 31.5876 47.4835C31.5876 47.4835 31.5876 47.5208 31.5503 47.5582L31.1287 47.9423C31.1287 47.9797 31.0914 47.9797 31.0914 47.9797C31.0167 47.9797 30.974 47.9797 30.974 47.9423C30.9366 47.9423 30.8993 47.9423 30.8993 47.905C30.8246 47.8303 30.7819 47.7876 30.7446 47.7503C30.6272 47.6329 30.5898 47.5955 30.5525 47.5208V47.4835ZM33.9727 45.9468H34.0474C34.0847 45.9841 34.1648 46.0642 34.2395 46.1389C34.3142 46.2562 34.4316 46.2936 34.5063 46.3309C34.4689 46.4056 34.4316 46.4483 34.3889 46.4857C34.3142 46.523 34.2715 46.6404 34.2341 46.6778C34.1968 46.6778 34.1968 46.7151 34.1594 46.7525C34.1221 46.7898 34.042 46.8272 33.9673 46.7898C33.8926 46.7898 33.8126 46.7151 33.7753 46.6724C33.7006 46.5977 33.5832 46.4803 33.5458 46.4056L33.9727 45.9468ZM33.9727 45.4505C33.8553 45.6053 33.7432 45.7173 33.5885 45.8721C33.5138 45.8721 33.4338 45.7974 33.3591 45.7173C33.2417 45.68 33.2043 45.6426 33.167 45.5626C33.1296 45.5252 33.0923 45.4452 33.0923 45.4079C33.167 45.3332 33.247 45.2531 33.3217 45.1784C33.3964 45.0237 33.4765 44.949 33.5138 44.9116H33.5512C33.7432 45.0664 33.8606 45.1784 33.8606 45.1784C33.898 45.2158 33.978 45.2531 34.0901 45.3332L34.4369 44.949H34.5116C34.5863 45.0237 34.6663 45.1411 34.7037 45.1784C34.8211 45.2531 34.8958 45.2958 34.9705 45.3332C34.9705 45.3705 34.9705 45.3705 34.9705 45.4079C34.9705 45.4079 34.9705 45.4452 34.9331 45.4452L34.5489 45.8667L34.5116 45.9041C34.4742 45.9041 34.4369 45.8667 34.3942 45.8667C34.3195 45.8667 34.3195 45.792 34.2768 45.792C34.2021 45.7173 34.1594 45.6746 34.1221 45.6373C34.0847 45.5999 34.0474 45.5626 33.9727 45.4505ZM30.4351 45.4505C30.4351 45.9094 30.4724 46.1442 30.5098 46.1815C30.5471 46.4483 30.7392 46.6404 30.894 46.7205C30.9687 46.7205 31.0113 46.7578 31.1234 46.7578C31.2781 46.7578 31.4702 46.7205 31.5823 46.6031C31.737 46.4857 31.8917 46.3736 32.0038 46.1815L32.7348 45.1464V44.9917C32.7348 44.9543 32.6974 44.9543 32.6974 44.917C32.2759 44.917 31.8917 44.8796 31.5076 44.8423C31.5076 44.8423 31.5076 44.8049 31.5823 44.7249C31.6997 44.5701 31.8917 44.4954 32.0411 44.4154C32.2332 44.298 32.4253 44.2607 32.6174 44.2607C32.6548 44.2607 32.7348 44.298 32.8468 44.4154C32.9642 44.4528 33.0389 44.4901 33.0763 44.4901C33.0763 44.4901 33.1136 44.4901 33.151 44.4901C33.3057 44.4528 33.4178 44.3354 33.5351 44.1806C33.6525 44.0633 33.7646 43.9138 33.8446 43.7965C33.882 43.7218 33.882 43.6791 33.8446 43.6791C33.8073 43.6791 33.8073 43.6791 33.7699 43.6791C33.7326 43.7164 33.6525 43.7965 33.5405 43.8712C33.4231 44.0259 33.311 44.1006 33.1563 44.1006C33.119 44.1006 33.119 44.1006 33.0816 44.1006C33.0069 44.0259 32.9269 43.9459 32.8148 43.8712C32.6974 43.8712 32.5854 43.9085 32.4306 43.9459C32.3559 43.9459 32.1212 44.1006 31.9291 44.1753C31.6997 44.33 31.5449 44.4848 31.3902 44.5595C31.2728 44.7142 31.1981 44.9063 31.1234 45.1357C31.1234 45.1357 31.1607 45.1731 31.1981 45.1731C31.1981 45.1731 31.2354 45.1731 31.2728 45.1731C31.6196 45.2104 31.9664 45.2104 32.3079 45.2478C32.2706 45.3225 32.2332 45.4025 32.1158 45.4399C32.1158 45.5146 32.0411 45.5573 31.9238 45.6693C31.8491 45.7067 31.6943 45.7867 31.6143 45.8614C31.4969 45.8614 31.3848 45.8987 31.2675 45.8987C31.1501 45.8987 31.0007 45.8614 30.9206 45.744C30.8032 45.6693 30.7659 45.5519 30.7285 45.3972C30.7285 45.2425 30.7285 45.0504 30.6538 44.8583V43.7805C30.6538 43.3963 30.7285 43.0121 30.7712 42.6279C30.7712 42.5906 30.7339 42.5532 30.7339 42.5532C30.6592 42.5532 30.6592 42.5906 30.6165 42.5906C30.6165 42.5906 30.5791 42.7453 30.4991 43.0121C30.4618 43.0868 30.4244 43.1668 30.4244 43.2789C30.4244 43.3536 30.4244 43.471 30.4244 43.5457C30.4244 43.6631 30.4244 43.7378 30.4244 43.8125V44.3887V45.4505H30.4351ZM31.9718 42.7186L32.4306 42.2171H32.468C32.6227 42.3345 32.7348 42.4465 32.8148 42.5639C32.8148 42.6013 32.8522 42.6013 32.9322 42.6386C32.9696 42.676 32.9696 42.7133 32.9696 42.7133C32.8148 42.868 32.6601 43.0228 32.468 43.1722C32.468 43.1722 32.4306 43.1722 32.3933 43.1348C32.3559 43.1348 32.3186 43.0975 32.2759 43.0975C32.2012 43.0228 32.1212 42.9801 32.0838 42.9427C32.0518 42.836 31.9718 42.7987 31.9718 42.7186ZM26.1345 46.0268L26.2092 45.9895C26.3639 45.8721 26.5933 45.7227 26.7854 45.6053H26.8228C26.8975 45.76 27.1322 45.9895 27.2069 46.1815V46.2562C27.1322 46.2562 27.0522 46.3736 26.9402 46.411C26.8228 46.4483 26.7481 46.5284 26.6307 46.6031C26.556 46.6031 26.476 46.6031 26.476 46.5284C26.4386 46.491 26.3586 46.411 26.3586 46.411C26.3212 46.3363 26.2412 46.1815 26.2038 46.1442C26.1718 46.1015 26.1345 46.0642 26.1345 46.0268ZM30.0883 44.6822C30.1256 44.6448 30.1256 44.6448 30.0883 44.6448C30.0883 44.6448 30.0509 44.6448 30.0136 44.6822C29.8962 44.6822 29.7468 44.8743 29.6667 44.9116C29.512 44.949 29.3999 44.9863 29.2826 44.9863C28.9731 44.9863 28.6316 44.949 28.3221 44.9116C28.0126 44.8743 27.6285 44.7942 27.287 44.6448C26.8655 44.5275 26.5186 44.4154 26.2092 44.298C26.0544 44.1806 25.7503 44.0312 25.5956 43.8765C25.5956 43.8391 25.5209 43.8018 25.4782 43.7218C25.4782 43.6844 25.5155 43.567 25.5155 43.4923L25.5902 43.3376C25.5902 43.3376 25.5902 43.3002 25.6276 43.2202C25.6276 43.1829 25.5902 43.1829 25.5902 43.1829H25.5155C25.5155 43.1829 25.5155 43.1829 25.4782 43.1829C25.4035 43.3749 25.3608 43.4923 25.2487 43.6044C25.2487 43.7218 25.2114 43.8338 25.1313 43.9512C25.1313 44.0259 25.094 44.0686 25.094 44.1433C25.094 44.1806 25.0566 44.2607 25.0566 44.3354C25.094 44.4101 25.094 44.4901 25.1313 44.5648C25.2487 44.6822 25.3234 44.7195 25.4408 44.8316C25.7076 44.949 26.0918 45.1411 26.4386 45.2158C26.7854 45.3332 27.1696 45.4079 27.5538 45.4452C27.9006 45.5626 28.2848 45.5626 28.5889 45.5999C28.8984 45.5999 29.1652 45.5252 29.4746 45.3332C29.7468 45.1784 29.9389 44.9863 30.0883 44.6822Z" fill="#106835"/>
</g>
<defs>
<clipPath id="clip0_1_3145">
<rect width="72.3955" height="60.4541" fill="white"/>
</clipPath>
</defs>
</svg>
